<svg width="160" height="202" viewBox="0 0 160 202" fill="none" xmlns="http://www.w3.org/2000/svg">
<g filter="url(#filter0_d)">
<path d="M79.6123 34.4434C57.3304 34.4434 39.3022 51.4491 39.3022 72.4049C39.3022 93.3608 79.6123 153.416 79.6123 153.416C79.6123 153.416 119.922 93.3608 119.922 72.4049C119.922 51.4491 101.894 34.4434 79.6123 34.4434Z" fill="white"/>
<g filter="url(#filter1_d)">
<path d="M80.0001 28.3027C53.6474 28.3027 32.3257 47.9416 32.3257 72.1422C32.3257 96.3428 80.0001 165.697 80.0001 165.697C80.0001 165.697 127.675 96.3428 127.675 72.1422C127.675 47.9416 106.353 28.3027 80.0001 28.3027Z" stroke="white" stroke-width="3" stroke-miterlimit="10" stroke-linejoin="round"/>
</g>
</g>
<defs>
<filter id="filter0_d" x="0" y="0" width="160" height="202" filterUnits="userSpaceOnUse" color-interpolation-filters="sRGB">
<feFlood flood-opacity="0" result="BackgroundImageFix"/>
<feColorMatrix in="SourceAlpha" type="matrix" values="0 0 0 0 0 0 0 0 0 0 0 0 0 0 0 0 0 0 127 0"/>
<feOffset dy="4"/>
<feGaussianBlur stdDeviation="15"/>
<feColorMatrix type="matrix" values="0 0 0 0 1 0 0 0 0 1 0 0 0 0 1 0 0 0 0.5 0"/>
<feBlend mode="normal" in2="BackgroundImageFix" result="effect1_dropShadow"/>
<feBlend mode="normal" in="SourceGraphic" in2="effect1_dropShadow" result="shape"/>
</filter>
<filter id="filter1_d" x="0.825684" y="0.802734" width="158.349" height="200.395" filterUnits="userSpaceOnUse" color-interpolation-filters="sRGB">
<feFlood flood-opacity="0" result="BackgroundImageFix"/>
<feColorMatrix in="SourceAlpha" type="matrix" values="0 0 0 0 0 0 0 0 0 0 0 0 0 0 0 0 0 0 127 0"/>
<feOffset dy="4"/>
<feGaussianBlur stdDeviation="15"/>
<feColorMatrix type="matrix" values="0 0 0 0 0 0 0 0 0 0 0 0 0 0 0 0 0 0 0.5 0"/>
<feBlend mode="normal" in2="BackgroundImageFix" result="effect1_dropShadow"/>
<feBlend mode="normal" in="SourceGraphic" in2="effect1_dropShadow" result="shape"/>
</filter>
</defs>
</svg>
